<?xml version="1.0" encoding="UTF-8"?> <!-- Generator: Adobe Illustrator 24.0.3, SVG Export Plug-In . SVG Version: 6.00 Build 0) --> <svg xmlns="http://www.w3.org/2000/svg" xmlns:xlink="http://www.w3.org/1999/xlink" version="1.1" id="Warstwa_1" x="0px" y="0px" viewBox="0 0 177.9 39.9" style="enable-background:new 0 0 177.9 39.9;" xml:space="preserve"> <style type="text/css"> .st0{fill-rule:evenodd;clip-rule:evenodd;fill:#FFFFFF;} .st1{fill-rule:evenodd;clip-rule:evenodd;fill:#EC1C24;} .st2{fill-rule:evenodd;clip-rule:evenodd;fill:#231F20;} </style> <g> <path class="st0" d="M34.5,32.9c0.1-0.1,0.1-0.1,0.2-0.2C34.6,32.8,34.6,32.9,34.5,32.9 M34.3,33.1c0,0,0.1-0.1,0.1-0.1 C34.4,33.1,34.4,33.1,34.3,33.1z M7.3,35.6c0,0,0.1,0.1,0.1,0.1C7.4,35.7,7.4,35.7,7.3,35.6z M7.2,35.5c0,0,0.1,0.1,0.1,0.1 C7.2,35.6,7.2,35.5,7.2,35.5z M7,35.4c0,0,0.1,0.1,0.1,0.1C7.1,35.4,7,35.4,7,35.4z M6.8,35.2c0,0,0.1,0.1,0.1,0.1 C6.9,35.3,6.9,35.2,6.8,35.2z M6.6,35c0,0,0.1,0.1,0.1,0.1C6.7,35.1,6.7,35.1,6.6,35z M0,19.6c-0.1,2.5,0.3,5,1.2,7.5 c0.3,0.9,0.8,1.9,1.2,2.7L2.5,30l8.8-19.4h6.3l-3.3,7.1h3.4l3.2-7.1h16.1v0h2.3l0,0.2c0,1.2,0,2.4,0,3.6h-4.3l-6.8,15H22l6.8-15 h-3.3l-6.8,15l-6.2,0l3.4-7.5l-3.4,0l-5.9,13l0,0c-1.6-1.4-3-3.1-4-5l0,0l-0.2-0.4C0.6,26.5-0.1,23,0,19.6L0,19.6z"></path> <path class="st1" d="M17.6,10.5l-3.3,7.1h3.4l3.2-7.1h13.6L31.3,0c0,0-2.7,0-3.7,0C18.4,0,11.4,0.5,5.3,7.1 c-5.7,6.1-6.9,15.2-2.9,22.5L2.5,30l8.8-19.4H17.6z"></path> <path class="st1" d="M39.4,14.6l0-0.2h-4.3l-6.8,15H22l6.8-15h-3.3l-6.8,15l-6.2,0l3.4-7.5l-3.4,0l-5.9,13L6.6,35 c3.6,3.1,8.1,4.9,12.9,4.9c5.4,0,10.6-2.3,14.3-6.2C38.8,28.4,39.7,22.2,39.4,14.6"></path> <polygon class="st2" points="55.8,22.1 51.6,22.1 50.3,29.4 46.3,29.4 49.3,11.9 53.4,11.9 52.2,18.9 56.4,18.9 57.6,11.9 61.7,11.9 58.6,29.4 54.5,29.4 "></polygon> <path class="st2" d="M73,23.9h-7.6c-0.1,0.8,0,1.5,0.4,2.1c0.4,0.6,1.2,0.9,2.2,0.9c0.6,0,1.3-0.1,1.9-0.3c0.7-0.2,1.3-0.4,1.9-0.7 l-0.5,3c-0.7,0.2-1.4,0.4-2.1,0.6c-0.7,0.1-1.4,0.2-2.1,0.2c-2.2,0-3.7-0.6-4.6-1.8c-0.9-1.2-1.1-2.9-0.8-5 c0.2-0.9,0.4-1.7,0.8-2.5c0.4-0.8,0.9-1.5,1.5-2.1c0.6-0.6,1.3-1.1,2.1-1.5c0.8-0.4,1.6-0.5,2.5-0.5c0.5,0,1.1,0,1.6,0.2 c0.5,0.1,1.1,0.4,1.6,0.8c0.6,0.4,1,1.1,1.2,2.1c0.3,1,0.3,2.2,0,3.8L73,23.9z M69.8,21.8c0.2-1,0.2-1.7-0.1-2.3 c-0.2-0.6-0.7-0.9-1.4-0.9c-0.5,0-0.9,0.1-1.2,0.4c-0.3,0.3-0.6,0.5-0.8,0.9c-0.2,0.3-0.3,0.7-0.4,1c-0.1,0.3-0.2,0.6-0.2,1H69.8z"></path> <path class="st2" d="M76.1,16.3H80l-2.3,13.1h-3.9L76.1,16.3z M77.1,10.6H81l-0.6,3.5h-3.9L77.1,10.6z"></path> <polygon class="st2" points="82.3,16.3 91.3,16.3 90.7,19.6 84.7,26.5 89.6,26.5 89.1,29.4 79.9,29.4 80.5,26.2 86.6,19.3 81.8,19.3 "></polygon> <path class="st2" d="M92.7,16.3h2.2l0.5-2.7l4-1.2l-0.7,3.9h2.5l-0.5,2.8h-2.5l-1.1,6c-0.1,0.6-0.1,1,0.1,1.3 c0.2,0.2,0.5,0.4,0.9,0.4c0.4,0,0.9-0.1,1.3-0.3L99,29.3c-0.2,0.1-0.6,0.2-1.1,0.2c-0.5,0.1-1.1,0.1-1.7,0.1c-1.1,0-2-0.3-2.6-0.9 c-0.6-0.6-0.8-1.6-0.5-2.9l1.2-6.6h-2.1L92.7,16.3z"></path> <path class="st2" d="M113,23.9h-7.6c-0.1,0.8,0,1.5,0.4,2.1c0.4,0.6,1.2,0.9,2.2,0.9c0.6,0,1.3-0.1,1.9-0.3 c0.7-0.2,1.3-0.4,1.9-0.7l-0.5,3c-0.7,0.2-1.4,0.4-2.1,0.6c-0.7,0.1-1.4,0.2-2.1,0.2c-2.2,0-3.7-0.6-4.6-1.8 c-0.9-1.2-1.1-2.9-0.8-5c0.2-0.9,0.4-1.7,0.8-2.5c0.4-0.8,0.9-1.5,1.5-2.1c0.6-0.6,1.3-1.1,2.1-1.5c0.8-0.4,1.6-0.5,2.5-0.5 c0.5,0,1.1,0,1.6,0.2c0.5,0.1,1.1,0.4,1.6,0.8c0.6,0.4,1,1.1,1.2,2.1c0.3,1,0.3,2.2,0,3.8L113,23.9z M109.8,21.8 c0.2-1,0.2-1.7-0.1-2.3c-0.2-0.6-0.7-0.9-1.4-0.9c-0.5,0-0.9,0.1-1.2,0.4c-0.3,0.3-0.6,0.5-0.8,0.9c-0.2,0.3-0.3,0.7-0.4,1 c-0.1,0.3-0.2,0.6-0.2,1H109.8z"></path> <path class="st2" d="M122.9,29.1c-1.5,0.4-2.7,0.6-3.6,0.6c-1.2,0-2.1-0.2-2.8-0.7c-0.7-0.4-1.3-1-1.6-1.7 c-0.3-0.7-0.5-1.4-0.6-2.1c-0.1-0.7,0-1.5,0.1-2.1c0.4-2.1,1.2-3.7,2.6-5c1.3-1.3,3-1.9,5-1.9c0.4,0,0.8,0,1.1,0.1 c0.3,0.1,0.7,0.2,1.2,0.3c0.3,0.1,0.5,0.2,0.7,0.2l-0.7,3c-0.4-0.2-0.8-0.3-1.1-0.4c-0.3-0.1-0.7-0.1-1-0.1c-0.7,0-1.3,0.2-1.7,0.5 c-0.5,0.3-0.8,0.7-1.1,1.1c-0.3,0.4-0.4,0.9-0.6,1.2c-0.1,0.4-0.2,0.7-0.2,1c-0.1,0.7-0.1,1.2,0,1.7c0.1,0.5,0.3,0.9,0.5,1.1 c0.3,0.3,0.6,0.5,0.9,0.6c0.4,0.1,0.7,0.2,1.1,0.2c0.3,0,0.7,0,1-0.1c0.3-0.1,0.8-0.2,1.3-0.4l0.1,0L122.9,29.1z"></path> <path class="st2" d="M128,10.6h3.9l-1.4,7.7h0c0.3-0.7,0.8-1.2,1.5-1.6c0.7-0.4,1.4-0.6,2.2-0.6c0.7,0,1.3,0.1,1.7,0.4 c0.4,0.2,0.8,0.6,1,1c0.2,0.4,0.4,0.9,0.4,1.5c0,0.6,0,1.2-0.1,1.9l-1.5,8.6h-3.9l1.4-8.1c0.1-0.8,0.1-1.3-0.1-1.6 c-0.2-0.3-0.6-0.5-1-0.5c-0.6,0-1.1,0.2-1.4,0.7c-0.4,0.5-0.6,1.2-0.8,2.1l-1.3,7.3h-3.9L128,10.6z"></path> <path class="st2" d="M147.1,21.4c0.1-0.8,0.1-1.3-0.1-1.6c-0.2-0.3-0.6-0.5-1-0.5c-0.6,0-1.1,0.2-1.4,0.7c-0.4,0.5-0.6,1.2-0.8,2.1 l-1.3,7.3h-3.9l1.8-10.3c0.1-0.6,0.2-1.1,0.3-1.6c0.1-0.4,0.1-0.8,0.1-1.2h3.6c-0.1,0.8-0.2,1.5-0.3,2.2l0,0c0.5-0.8,1-1.4,1.6-1.8 c0.6-0.4,1.4-0.6,2.4-0.6c0.7,0,1.3,0.1,1.7,0.4c0.4,0.2,0.8,0.6,1,1c0.2,0.4,0.4,0.9,0.4,1.5c0,0.6,0,1.2-0.1,1.9l-1.5,8.6h-3.9 L147.1,21.4z"></path> <path class="st2" d="M154.7,16.3h3.9l-2.3,13.1h-3.9L154.7,16.3z M155.7,10.6h3.9l-0.6,3.5h-3.9L155.7,10.6z"></path> <polygon class="st2" points="162.6,10.6 166.6,10.6 164.6,21.6 164.7,21.6 168.9,16.3 172.9,16.3 167.8,22.3 170.9,29.4 166.5,29.4 164.4,23.2 164.3,23.2 163.2,29.4 159.3,29.4 "></polygon> <path class="st2" d="M174.9,7.9h0.2c0.3,0,0.5,0,0.6,0c0.1,0,0.1-0.1,0.2-0.1c0-0.1,0.1-0.1,0.1-0.2c0-0.1,0-0.1-0.1-0.2 c0-0.1-0.1-0.1-0.2-0.1c-0.1,0-0.3,0-0.6,0h-0.2V7.9z M174.4,9.4V6.8h0.5c0.5,0,0.8,0,0.8,0c0.2,0,0.3,0,0.4,0.1 c0.1,0.1,0.2,0.1,0.2,0.2c0.1,0.1,0.1,0.2,0.1,0.4c0,0.2-0.1,0.3-0.2,0.5c-0.1,0.1-0.3,0.2-0.5,0.2c0.1,0,0.1,0.1,0.2,0.1 c0,0,0.1,0.1,0.2,0.2c0,0,0.1,0.1,0.2,0.3l0.3,0.5H176L175.8,9c-0.1-0.3-0.3-0.5-0.4-0.5c-0.1-0.1-0.2-0.1-0.4-0.1h-0.1v1.1H174.4z M175.5,6.1c-0.3,0-0.7,0.1-1,0.3c-0.3,0.2-0.5,0.4-0.7,0.7c-0.2,0.3-0.3,0.6-0.3,1c0,0.3,0.1,0.7,0.3,1c0.2,0.3,0.4,0.6,0.7,0.7 c0.3,0.2,0.6,0.3,1,0.3c0.3,0,0.7-0.1,1-0.3c0.3-0.2,0.6-0.4,0.7-0.7c0.2-0.3,0.3-0.6,0.3-1c0-0.3-0.1-0.7-0.3-1 c-0.2-0.3-0.4-0.6-0.7-0.7C176.1,6.2,175.8,6.1,175.5,6.1z M175.5,5.6c0.4,0,0.8,0.1,1.2,0.3c0.4,0.2,0.7,0.5,0.9,0.9 c0.2,0.4,0.3,0.8,0.3,1.2c0,0.4-0.1,0.8-0.3,1.2c-0.2,0.4-0.5,0.7-0.9,0.9c-0.4,0.2-0.8,0.3-1.2,0.3c-0.4,0-0.8-0.1-1.2-0.3 c-0.4-0.2-0.7-0.5-0.9-0.9c-0.2-0.4-0.3-0.8-0.3-1.2c0-0.4,0.1-0.8,0.3-1.2c0.2-0.4,0.5-0.7,0.9-0.9C174.7,5.7,175.1,5.6,175.5,5.6 z"></path> </g> </svg> 