<svg width="586" height="242" viewBox="0 0 586 242" fill="none" xmlns="http://www.w3.org/2000/svg">
<path d="M160.438 226.128C157.414 230.02 154.05 232.742 150.498 234.254C146.945 235.879 142.712 236.635 137.95 236.635C133.943 236.635 130.39 235.992 127.253 234.48C124.116 233.082 121.433 231.23 119.241 228.849C116.973 226.468 115.348 223.671 114.176 220.42C113.005 217.17 112.324 213.731 112.324 210.027C112.324 206.134 112.967 202.581 114.252 199.217C115.537 195.967 117.389 193.17 119.657 190.789C121.924 188.521 124.721 186.669 127.858 185.384C130.995 184.099 134.472 183.457 138.252 183.457C141.805 183.457 145.055 183.986 147.965 185.195C150.876 186.367 153.483 188.105 155.638 190.373C157.679 192.641 159.304 195.438 160.513 198.688C161.685 202.052 162.252 205.718 162.252 209.951V212.672H121.395C121.509 214.827 122.038 216.905 123.02 218.833C123.89 220.874 125.061 222.613 126.498 224.011C127.896 225.523 129.635 226.732 131.562 227.564C133.527 228.433 135.682 228.849 137.95 228.849C141.616 228.849 144.753 228.206 147.247 226.921C149.742 225.636 152.009 223.671 154.05 221.176L160.438 226.165V226.128ZM153.181 205.491C153.068 201.183 151.669 197.705 148.948 195.098C146.227 192.49 142.561 191.205 137.912 191.205C133.263 191.205 129.483 192.49 126.573 195.098C123.663 197.705 121.924 201.145 121.395 205.491H153.181Z" fill="#46AD7B"/>
<path d="M203.033 191.847H188.104V217.132C188.104 218.757 188.104 220.269 188.217 221.668C188.331 223.066 188.558 224.389 189.087 225.334C189.616 226.43 190.372 227.299 191.354 227.828C192.337 228.471 193.849 228.811 195.663 228.811C196.835 228.811 198.158 228.698 199.443 228.395C200.728 228.055 201.937 227.639 203.109 227.11L203.449 234.783C202.05 235.425 200.425 235.879 198.687 236.181C196.835 236.521 195.209 236.597 193.622 236.597C190.598 236.597 188.217 236.181 186.365 235.425C184.513 234.669 183.115 233.498 182.132 232.061C181.15 230.663 180.507 228.811 180.205 226.657C179.865 224.616 179.676 222.235 179.676 219.627V191.847H168.639V184.704H179.676V170.342H188.104V184.704H203.033V191.847Z" fill="#46AD7B"/>
<path d="M258.592 226.128C255.569 230.02 252.205 232.742 248.652 234.254C245.099 235.879 240.866 236.635 236.104 236.635C232.098 236.635 228.545 235.992 225.408 234.48C222.271 233.082 219.587 231.23 217.395 228.849C215.128 226.468 213.502 223.671 212.331 220.42C211.159 217.17 210.479 213.731 210.479 210.027C210.479 206.134 211.121 202.581 212.406 199.217C213.691 195.967 215.543 193.17 217.811 190.789C220.079 188.521 222.876 186.669 226.013 185.384C229.15 184.099 232.627 183.457 236.406 183.457C239.959 183.457 243.209 183.986 246.12 185.195C249.03 186.367 251.638 188.105 253.792 190.373C255.833 192.641 257.458 195.438 258.668 198.688C259.839 202.052 260.406 205.718 260.406 209.951V212.672H219.55C219.663 214.827 220.192 216.905 221.175 218.833C222.044 220.874 223.216 222.613 224.652 224.011C226.05 225.523 227.789 226.732 229.717 227.564C231.682 228.433 233.836 228.849 236.104 228.849C239.77 228.849 242.907 228.206 245.402 226.921C247.896 225.636 250.164 223.671 252.205 221.176L258.592 226.165V226.128ZM251.335 205.491C251.222 201.183 249.824 197.705 247.102 195.098C244.381 192.49 240.715 191.205 236.066 191.205C231.417 191.205 227.638 192.49 224.728 195.098C221.817 197.705 220.079 201.145 219.55 205.491H251.335Z" fill="#46AD7B"/>
<path d="M309.54 197.365C307.688 195.211 305.761 193.586 303.72 192.603C301.679 191.62 299.298 191.205 296.803 191.205C294.006 191.205 291.512 191.62 289.357 192.603C287.203 193.586 285.465 194.984 284.066 196.723C282.668 198.461 281.572 200.389 280.816 202.657C280.06 204.924 279.72 207.419 279.72 210.027C279.72 212.635 280.135 215.016 281.005 217.283C281.761 219.551 282.932 221.592 284.482 223.331C285.88 225.069 287.732 226.354 289.773 227.337C291.814 228.32 294.195 228.849 296.803 228.849C302.321 228.849 306.63 226.808 309.654 222.575L315.928 228.509C313.433 231.305 310.636 233.384 307.272 234.669C303.909 235.954 300.469 236.597 296.765 236.597C292.872 236.597 289.32 235.954 286.069 234.669C282.819 233.384 280.135 231.532 277.868 229.151C275.6 226.77 273.748 223.973 272.576 220.723C271.291 217.472 270.649 213.92 270.649 210.027C270.649 206.247 271.291 202.657 272.576 199.444C273.748 196.194 275.6 193.397 277.868 191.016C280.135 188.635 282.932 186.783 286.183 185.384C289.32 184.099 292.872 183.457 296.765 183.457C300.545 183.457 304.135 184.099 307.461 185.384C310.825 186.669 313.735 188.748 316.23 191.431L309.54 197.365Z" fill="#46AD7B"/>
<path d="M353.307 191.847H338.378V217.132C338.378 218.757 338.378 220.269 338.491 221.668C338.605 223.066 338.831 224.389 339.361 225.334C339.89 226.43 340.646 227.299 341.628 227.828C342.611 228.471 344.123 228.811 345.937 228.811C347.109 228.811 348.431 228.698 349.716 228.395C351.002 228.055 352.211 227.639 353.383 227.11L353.723 234.783C352.324 235.425 350.699 235.879 348.961 236.181C347.109 236.521 345.483 236.597 343.896 236.597C340.872 236.597 338.491 236.181 336.639 235.425C334.787 234.669 333.389 233.498 332.406 232.061C331.424 230.663 330.781 228.811 330.479 226.657C330.139 224.616 329.95 222.235 329.95 219.627V191.847H318.913V184.704H329.95V170.342H338.378V184.704H353.307V191.847Z" fill="#46AD7B"/>
<path d="M360.791 209.989C360.791 205.983 361.433 202.43 362.831 199.179C364.23 195.929 366.082 193.132 368.463 190.751C370.844 188.483 373.641 186.631 377.005 185.346C380.368 184.061 383.921 183.419 387.814 183.419C391.707 183.419 395.26 184.061 398.624 185.346C401.987 186.631 404.784 188.483 407.165 190.751C409.546 193.132 411.398 195.929 412.797 199.179C414.195 202.43 414.838 205.983 414.838 209.989C414.838 213.995 414.195 217.548 412.797 220.798C411.398 224.049 409.546 226.846 407.165 229.113C404.784 231.494 401.987 233.346 398.624 234.631C395.26 235.916 391.707 236.559 387.814 236.559C383.921 236.559 380.368 235.916 377.005 234.631C373.641 233.346 370.844 231.494 368.463 229.113C366.082 226.846 364.23 224.049 362.831 220.798C361.433 217.548 360.791 213.995 360.791 209.989ZM369.861 209.989C369.861 212.71 370.277 215.053 371.146 217.359C371.902 219.627 373.074 221.668 374.699 223.293C376.324 225.031 378.176 226.316 380.444 227.299C382.598 228.282 385.093 228.811 387.814 228.811C390.535 228.811 392.992 228.282 395.26 227.299C397.414 226.316 399.266 225.031 400.891 223.293C402.517 221.668 403.688 219.627 404.557 217.359C405.313 215.091 405.729 212.71 405.729 209.989C405.729 207.268 405.313 204.811 404.557 202.543C403.688 200.276 402.517 198.31 400.891 196.609C399.266 194.984 397.414 193.586 395.26 192.603C392.992 191.62 390.498 191.205 387.814 191.205C385.093 191.205 382.636 191.62 380.444 192.603C378.176 193.586 376.324 194.984 374.699 196.609C373.074 198.348 371.902 200.276 371.146 202.543C370.277 204.811 369.861 207.305 369.861 209.989Z" fill="#46AD7B"/>
<path d="M427.915 196.685C427.915 194.417 427.802 192.263 427.688 190.184C427.575 188.143 427.461 186.291 427.461 184.666H435.474C435.474 186.064 435.474 187.387 435.587 188.786C435.701 190.184 435.701 191.583 435.701 193.019H435.928C436.457 191.847 437.326 190.638 438.422 189.466C439.405 188.294 440.69 187.312 442.088 186.329C443.487 185.46 445.112 184.704 446.964 184.175C448.816 183.646 450.743 183.419 452.784 183.419C453.313 183.419 453.956 183.419 454.523 183.532C455.052 183.646 455.694 183.759 456.261 183.948L455.732 192.49C454.334 192.074 452.822 191.847 451.197 191.847C446.019 191.847 442.239 193.472 439.934 196.836C437.553 200.2 436.381 204.849 436.381 210.669V235.312H427.953V196.723L427.915 196.685Z" fill="#46AD7B"/>
<path d="M160.438 226.128C157.414 230.02 154.05 232.742 150.498 234.254C146.945 235.879 142.712 236.635 137.95 236.635C133.943 236.635 130.39 235.992 127.253 234.48C124.116 233.082 121.433 231.23 119.241 228.849C116.973 226.468 115.348 223.671 114.176 220.42C113.005 217.17 112.324 213.731 112.324 210.027C112.324 206.134 112.967 202.581 114.252 199.217C115.537 195.967 117.389 193.17 119.657 190.789C121.924 188.521 124.721 186.669 127.858 185.384C130.995 184.099 134.472 183.457 138.252 183.457C141.805 183.457 145.055 183.986 147.965 185.195C150.876 186.367 153.483 188.105 155.638 190.373C157.679 192.641 159.304 195.438 160.513 198.688C161.685 202.052 162.252 205.718 162.252 209.951V212.672H121.395C121.509 214.827 122.038 216.905 123.02 218.833C123.89 220.874 125.061 222.613 126.498 224.011C127.896 225.523 129.635 226.732 131.562 227.564C133.527 228.433 135.682 228.849 137.95 228.849C141.616 228.849 144.753 228.206 147.247 226.921C149.742 225.636 152.009 223.671 154.05 221.176L160.438 226.165V226.128ZM153.181 205.491C153.068 201.183 151.669 197.705 148.948 195.098C146.227 192.49 142.561 191.205 137.912 191.205C133.263 191.205 129.483 192.49 126.573 195.098C123.663 197.705 121.924 201.145 121.395 205.491H153.181Z" stroke="#46AD7B" stroke-width="0.680315" stroke-miterlimit="22.9256"/>
<path d="M203.033 191.847H188.104V217.132C188.104 218.757 188.104 220.269 188.217 221.668C188.331 223.066 188.558 224.389 189.087 225.334C189.616 226.43 190.372 227.299 191.354 227.828C192.337 228.471 193.849 228.811 195.663 228.811C196.835 228.811 198.158 228.698 199.443 228.395C200.728 228.055 201.937 227.639 203.109 227.11L203.449 234.783C202.05 235.425 200.425 235.879 198.687 236.181C196.835 236.521 195.209 236.597 193.622 236.597C190.598 236.597 188.217 236.181 186.365 235.425C184.513 234.669 183.115 233.498 182.132 232.061C181.15 230.663 180.507 228.811 180.205 226.657C179.865 224.616 179.676 222.235 179.676 219.627V191.847H168.639V184.704H179.676V170.342H188.104V184.704H203.033V191.847Z" stroke="#46AD7B" stroke-width="0.680315" stroke-miterlimit="22.9256"/>
<path d="M258.592 226.128C255.569 230.02 252.205 232.742 248.652 234.254C245.099 235.879 240.866 236.635 236.104 236.635C232.098 236.635 228.545 235.992 225.408 234.48C222.271 233.082 219.587 231.23 217.395 228.849C215.128 226.468 213.502 223.671 212.331 220.42C211.159 217.17 210.479 213.731 210.479 210.027C210.479 206.134 211.121 202.581 212.406 199.217C213.691 195.967 215.543 193.17 217.811 190.789C220.079 188.521 222.876 186.669 226.013 185.384C229.15 184.099 232.627 183.457 236.406 183.457C239.959 183.457 243.209 183.986 246.12 185.195C249.03 186.367 251.638 188.105 253.792 190.373C255.833 192.641 257.458 195.438 258.668 198.688C259.839 202.052 260.406 205.718 260.406 209.951V212.672H219.55C219.663 214.827 220.192 216.905 221.175 218.833C222.044 220.874 223.216 222.613 224.652 224.011C226.05 225.523 227.789 226.732 229.717 227.564C231.682 228.433 233.836 228.849 236.104 228.849C239.77 228.849 242.907 228.206 245.402 226.921C247.896 225.636 250.164 223.671 252.205 221.176L258.592 226.165V226.128ZM251.335 205.491C251.222 201.183 249.824 197.705 247.102 195.098C244.381 192.49 240.715 191.205 236.066 191.205C231.417 191.205 227.638 192.49 224.728 195.098C221.817 197.705 220.079 201.145 219.55 205.491H251.335Z" stroke="#46AD7B" stroke-width="0.680315" stroke-miterlimit="22.9256"/>
<path d="M309.54 197.365C307.688 195.211 305.761 193.586 303.72 192.603C301.679 191.62 299.298 191.205 296.803 191.205C294.006 191.205 291.512 191.62 289.357 192.603C287.203 193.586 285.465 194.984 284.066 196.723C282.668 198.461 281.572 200.389 280.816 202.657C280.06 204.924 279.72 207.419 279.72 210.027C279.72 212.635 280.135 215.016 281.005 217.283C281.761 219.551 282.932 221.592 284.482 223.331C285.88 225.069 287.732 226.354 289.773 227.337C291.814 228.32 294.195 228.849 296.803 228.849C302.321 228.849 306.63 226.808 309.654 222.575L315.928 228.509C313.433 231.305 310.636 233.384 307.272 234.669C303.909 235.954 300.469 236.597 296.765 236.597C292.872 236.597 289.32 235.954 286.069 234.669C282.819 233.384 280.135 231.532 277.868 229.151C275.6 226.77 273.748 223.973 272.576 220.723C271.291 217.472 270.649 213.92 270.649 210.027C270.649 206.247 271.291 202.657 272.576 199.444C273.748 196.194 275.6 193.397 277.868 191.016C280.135 188.635 282.932 186.783 286.183 185.384C289.32 184.099 292.872 183.457 296.765 183.457C300.545 183.457 304.135 184.099 307.461 185.384C310.825 186.669 313.735 188.748 316.23 191.431L309.54 197.365Z" stroke="#46AD7B" stroke-width="0.680315" stroke-miterlimit="22.9256"/>
<path d="M353.307 191.847H338.378V217.132C338.378 218.757 338.378 220.269 338.491 221.668C338.605 223.066 338.831 224.389 339.361 225.334C339.89 226.43 340.646 227.299 341.628 227.828C342.611 228.471 344.123 228.811 345.937 228.811C347.109 228.811 348.431 228.698 349.716 228.395C351.002 228.055 352.211 227.639 353.383 227.11L353.723 234.783C352.324 235.425 350.699 235.879 348.961 236.181C347.109 236.521 345.483 236.597 343.896 236.597C340.872 236.597 338.491 236.181 336.639 235.425C334.787 234.669 333.389 233.498 332.406 232.061C331.424 230.663 330.781 228.811 330.479 226.657C330.139 224.616 329.95 222.235 329.95 219.627V191.847H318.913V184.704H329.95V170.342H338.378V184.704H353.307V191.847Z" stroke="#46AD7B" stroke-width="0.680315" stroke-miterlimit="22.9256"/>
<path d="M360.791 209.989C360.791 205.983 361.433 202.43 362.831 199.179C364.23 195.929 366.082 193.132 368.463 190.751C370.844 188.483 373.641 186.631 377.005 185.346C380.368 184.061 383.921 183.419 387.814 183.419C391.707 183.419 395.26 184.061 398.624 185.346C401.987 186.631 404.784 188.483 407.165 190.751C409.546 193.132 411.398 195.929 412.797 199.179C414.195 202.43 414.838 205.983 414.838 209.989C414.838 213.995 414.195 217.548 412.797 220.798C411.398 224.049 409.546 226.846 407.165 229.113C404.784 231.494 401.987 233.346 398.624 234.631C395.26 235.916 391.707 236.559 387.814 236.559C383.921 236.559 380.368 235.916 377.005 234.631C373.641 233.346 370.844 231.494 368.463 229.113C366.082 226.846 364.23 224.049 362.831 220.798C361.433 217.548 360.791 213.995 360.791 209.989ZM369.861 209.989C369.861 212.71 370.277 215.053 371.146 217.359C371.902 219.627 373.074 221.668 374.699 223.293C376.324 225.031 378.176 226.316 380.444 227.299C382.598 228.282 385.093 228.811 387.814 228.811C390.535 228.811 392.992 228.282 395.26 227.299C397.414 226.316 399.266 225.031 400.891 223.293C402.517 221.668 403.688 219.627 404.557 217.359C405.313 215.091 405.729 212.71 405.729 209.989C405.729 207.268 405.313 204.811 404.557 202.543C403.688 200.276 402.517 198.31 400.891 196.609C399.266 194.984 397.414 193.586 395.26 192.603C392.992 191.62 390.498 191.205 387.814 191.205C385.093 191.205 382.636 191.62 380.444 192.603C378.176 193.586 376.324 194.984 374.699 196.609C373.074 198.348 371.902 200.276 371.146 202.543C370.277 204.811 369.861 207.305 369.861 209.989Z" stroke="#46AD7B" stroke-width="0.680315" stroke-miterlimit="22.9256"/>
<path d="M427.915 196.685C427.915 194.417 427.802 192.263 427.688 190.184C427.575 188.143 427.461 186.291 427.461 184.666H435.474C435.474 186.064 435.474 187.387 435.587 188.786C435.701 190.184 435.701 191.583 435.701 193.019H435.928C436.457 191.847 437.326 190.638 438.422 189.466C439.405 188.294 440.69 187.312 442.088 186.329C443.487 185.46 445.112 184.704 446.964 184.175C448.816 183.646 450.743 183.419 452.784 183.419C453.313 183.419 453.956 183.419 454.523 183.532C455.052 183.646 455.694 183.759 456.261 183.948L455.732 192.49C454.334 192.074 452.822 191.847 451.197 191.847C446.019 191.847 442.239 193.472 439.934 196.836C437.553 200.2 436.381 204.849 436.381 210.669V235.312H427.953V196.723L427.915 196.685Z" stroke="#46AD7B" stroke-width="0.680315" stroke-miterlimit="22.9256"/>
<path d="M203.109 144.187H188.179V118.902C188.179 117.277 188.179 115.765 188.293 114.367C188.406 112.968 188.633 111.646 189.162 110.701C189.691 109.605 190.447 108.735 191.43 108.206C192.413 107.564 193.924 107.224 195.776 107.224C196.948 107.224 198.271 107.337 199.556 107.639C200.841 107.979 202.05 108.395 203.222 108.924L203.562 101.252C202.164 100.609 200.539 100.156 198.8 99.8535C196.948 99.5133 195.323 99.4377 193.698 99.4377C190.674 99.4377 188.293 99.8535 186.441 100.609C184.589 101.365 183.191 102.537 182.208 103.973C181.225 105.372 180.583 107.224 180.242 109.378C179.902 111.419 179.713 113.8 179.713 116.408V144.187H168.677V151.331H179.713V165.693H188.142V151.331H203.071V144.187H203.109Z" fill="#5C5C5B"/>
<path d="M203.109 144.187H188.179V118.902C188.179 117.277 188.179 115.765 188.293 114.367C188.406 112.968 188.633 111.646 189.162 110.701C189.691 109.605 190.447 108.735 191.43 108.206C192.413 107.564 193.924 107.224 195.776 107.224C196.948 107.224 198.271 107.337 199.556 107.639C200.841 107.979 202.05 108.395 203.222 108.924L203.562 101.252C202.164 100.609 200.539 100.156 198.8 99.8535C196.948 99.5133 195.323 99.4377 193.698 99.4377C190.674 99.4377 188.293 99.8535 186.441 100.609C184.589 101.365 183.191 102.537 182.208 103.973C181.225 105.372 180.583 107.224 180.242 109.378C179.902 111.419 179.713 113.8 179.713 116.408V144.187H168.677V151.331H179.713V165.693H188.142V151.331H203.071V144.187H203.109Z" stroke="#4E4E4D" stroke-width="0.680315" stroke-miterlimit="22.9256"/>
<path d="M352.816 137.157H337.887V162.442C337.887 163.576 337.887 164.748 337.887 165.768H329.458V165.013V137.195H318.498V130.052H329.458V115.614H337.887V130.052H352.816V137.195V137.157Z" fill="#5C5C5B"/>
<path d="M352.816 138.291H339.02V162.556V164.861V165.731H336.715V164.861V162.556V136.137H337.887H351.682V131.148H336.715V116.861H330.592V131.148H319.48V136.137H330.592V164.975V165.731H328.287V164.975V138.291H317.213V128.994H328.287V114.556H339.02V128.994H353.95V138.291H352.816Z" fill="#4E4E4D"/>
<path d="M254.321 128.88C251.298 124.987 247.934 122.266 244.381 120.754C240.828 119.129 236.595 118.373 231.833 118.373C227.827 118.373 224.274 119.016 221.137 120.527C218 121.926 215.279 123.778 213.124 126.159C210.857 128.54 209.231 131.337 208.022 134.587C206.85 137.838 206.17 141.277 206.17 144.981C206.17 148.874 206.813 152.427 208.135 155.79C209.42 159.041 211.272 161.838 213.54 164.219C215.808 166.487 218.642 168.339 221.779 169.624C224.917 170.909 228.394 171.551 232.173 171.551C235.726 171.551 238.976 171.022 241.924 169.813C244.835 168.641 247.442 166.902 249.597 164.635C251.638 162.367 253.263 159.57 254.472 156.32C255.644 152.956 256.211 149.29 256.211 145.057V142.335H215.317C215.43 140.181 215.959 138.102 216.942 136.175C217.811 134.134 218.983 132.395 220.419 130.997C221.817 129.485 223.556 128.276 225.521 127.444C227.487 126.575 229.641 126.159 231.909 126.159C235.575 126.159 238.712 126.802 241.206 128.087C243.701 129.372 245.968 131.337 248.009 133.831L254.397 128.842L254.321 128.88ZM247.065 149.516C246.951 153.825 245.553 157.302 242.831 159.91C240.11 162.518 236.444 163.803 231.795 163.803C227.146 163.803 223.367 162.518 220.419 159.91C217.509 157.302 215.77 153.863 215.241 149.516H247.065Z" fill="#5C5C5B"/>
<path d="M305.269 157.643C303.417 159.797 301.49 161.422 299.411 162.405C297.37 163.387 294.989 163.803 292.494 163.803C289.698 163.803 287.203 163.387 285.011 162.405C282.857 161.422 281.118 160.024 279.72 158.285C278.321 156.546 277.225 154.619 276.469 152.351C275.713 150.083 275.373 147.589 275.373 144.981C275.373 142.373 275.789 139.992 276.658 137.724C277.414 135.457 278.624 133.416 280.135 131.677C281.534 129.939 283.386 128.654 285.427 127.671C287.468 126.688 289.849 126.159 292.457 126.159C297.975 126.159 302.321 128.2 305.345 132.433L311.619 126.499C309.124 123.702 306.328 121.624 302.964 120.339C299.6 119.054 296.161 118.411 292.457 118.411C288.564 118.411 284.973 119.054 281.761 120.339C278.51 121.624 275.827 123.476 273.521 125.857C271.254 128.238 269.402 131.035 268.23 134.285C266.945 137.535 266.265 141.088 266.265 144.981C266.265 148.761 266.907 152.351 268.23 155.564C269.402 158.814 271.254 161.611 273.521 163.992C275.789 166.373 278.624 168.225 281.836 169.624C284.973 170.909 288.526 171.551 292.457 171.551C296.236 171.551 299.827 170.909 303.153 169.624C306.516 168.339 309.427 166.26 311.921 163.576L305.231 157.643H305.269Z" fill="#5C5C5B"/>
<path d="M254.321 128.88C251.298 124.987 247.934 122.266 244.381 120.754C240.828 119.129 236.595 118.373 231.833 118.373C227.827 118.373 224.274 119.016 221.137 120.527C218 121.926 215.279 123.778 213.124 126.159C210.857 128.54 209.231 131.337 208.022 134.587C206.85 137.838 206.17 141.277 206.17 144.981C206.17 148.874 206.813 152.427 208.135 155.79C209.42 159.041 211.272 161.838 213.54 164.219C215.808 166.487 218.642 168.339 221.779 169.624C224.917 170.909 228.394 171.551 232.173 171.551C235.726 171.551 238.976 171.022 241.924 169.813C244.835 168.641 247.442 166.902 249.597 164.635C251.638 162.367 253.263 159.57 254.472 156.32C255.644 152.956 256.211 149.29 256.211 145.057V142.335H215.317C215.43 140.181 215.959 138.102 216.942 136.175C217.811 134.134 218.983 132.395 220.419 130.997C221.817 129.485 223.556 128.276 225.521 127.444C227.487 126.575 229.641 126.159 231.909 126.159C235.575 126.159 238.712 126.802 241.206 128.087C243.701 129.372 245.968 131.337 248.009 133.831L254.397 128.842L254.321 128.88ZM247.065 149.516C246.951 153.825 245.553 157.302 242.831 159.91C240.11 162.518 236.444 163.803 231.795 163.803C227.146 163.803 223.367 162.518 220.419 159.91C217.509 157.302 215.77 153.863 215.241 149.516H247.065Z" stroke="#4E4E4D" stroke-width="0.680315" stroke-miterlimit="22.9256"/>
<path d="M305.269 157.643C303.417 159.797 301.49 161.422 299.411 162.405C297.37 163.387 294.989 163.803 292.494 163.803C289.698 163.803 287.203 163.387 285.011 162.405C282.857 161.422 281.118 160.024 279.72 158.285C278.321 156.546 277.225 154.619 276.469 152.351C275.713 150.083 275.373 147.589 275.373 144.981C275.373 142.373 275.789 139.992 276.658 137.724C277.414 135.457 278.624 133.416 280.135 131.677C281.534 129.939 283.386 128.654 285.427 127.671C287.468 126.688 289.849 126.159 292.457 126.159C297.975 126.159 302.321 128.2 305.345 132.433L311.619 126.499C309.124 123.702 306.328 121.624 302.964 120.339C299.6 119.054 296.161 118.411 292.457 118.411C288.564 118.411 284.973 119.054 281.761 120.339C278.51 121.624 275.827 123.476 273.521 125.857C271.254 128.238 269.402 131.035 268.23 134.285C266.945 137.535 266.265 141.088 266.265 144.981C266.265 148.761 266.907 152.351 268.23 155.564C269.402 158.814 271.254 161.611 273.521 163.992C275.789 166.373 278.624 168.225 281.836 169.624C284.973 170.909 288.526 171.551 292.457 171.551C296.236 171.551 299.827 170.909 303.153 169.624C306.516 168.339 309.427 166.26 311.921 163.576L305.231 157.643H305.269Z" stroke="#4E4E4D" stroke-width="0.680315" stroke-miterlimit="22.9256"/>
<path d="M161.95 130.014C158.926 126.121 155.562 123.4 152.009 121.888C148.457 120.263 144.224 119.507 139.461 119.507C135.455 119.507 131.902 120.15 128.765 121.661C125.628 123.06 122.907 124.912 120.753 127.293C118.485 129.674 116.86 132.471 115.65 135.721C114.479 138.972 113.798 142.411 113.798 146.115C113.798 150.008 114.441 153.561 115.764 156.924C117.049 160.175 118.901 162.972 121.169 165.353C123.436 167.62 126.271 169.472 129.408 170.757C132.545 172.043 136.022 172.685 139.802 172.685C143.354 172.685 146.605 172.156 149.553 170.946C152.463 169.775 155.071 168.036 157.225 165.768C159.266 163.501 160.891 160.704 162.101 157.454C163.272 154.09 163.839 150.424 163.839 146.191V143.469H122.945C123.058 141.315 123.587 139.236 124.57 137.309C125.439 135.268 126.611 133.529 128.047 132.131C129.446 130.619 131.184 129.409 133.15 128.578C135.115 127.709 137.269 127.293 139.537 127.293C143.203 127.293 146.34 127.935 148.835 129.22C151.329 130.506 153.597 132.471 155.638 134.965L162.025 129.976L161.95 130.014ZM154.693 150.65C154.58 154.959 153.181 158.436 150.46 161.044C147.739 163.652 144.072 164.937 139.424 164.937C134.775 164.937 130.995 163.652 128.047 161.044C125.137 158.436 123.398 154.997 122.869 150.65H154.693Z" fill="#5C5C5B"/>
<path d="M161.95 130.014C158.926 126.121 155.562 123.4 152.009 121.888C148.457 120.263 144.224 119.507 139.461 119.507C135.455 119.507 131.902 120.15 128.765 121.661C125.628 123.06 122.907 124.912 120.753 127.293C118.485 129.674 116.86 132.471 115.65 135.721C114.479 138.972 113.798 142.411 113.798 146.115C113.798 150.008 114.441 153.561 115.764 156.924C117.049 160.175 118.901 162.972 121.169 165.353C123.436 167.62 126.271 169.472 129.408 170.757C132.545 172.043 136.022 172.685 139.802 172.685C143.354 172.685 146.605 172.156 149.553 170.946C152.463 169.775 155.071 168.036 157.225 165.768C159.266 163.501 160.891 160.704 162.101 157.454C163.272 154.09 163.839 150.424 163.839 146.191V143.469H122.945C123.058 141.315 123.587 139.236 124.57 137.309C125.439 135.268 126.611 133.529 128.047 132.131C129.446 130.619 131.184 129.409 133.15 128.578C135.115 127.709 137.269 127.293 139.537 127.293C143.203 127.293 146.34 127.935 148.835 129.22C151.329 130.506 153.597 132.471 155.638 134.965L162.025 129.976L161.95 130.014ZM154.693 150.65C154.58 154.959 153.181 158.436 150.46 161.044C147.739 163.652 144.072 164.937 139.424 164.937C134.775 164.937 130.995 163.652 128.047 161.044C125.137 158.436 123.398 154.997 122.869 150.65H154.693Z" stroke="#4E4E4D" stroke-width="0.680315" stroke-miterlimit="22.9256"/>
<path d="M99.3984 237.201L55.9716 236.597C52.3055 236.559 48.2992 235.916 44.1795 234.858C40.022 233.8 35.9023 231.986 31.7449 229.756C27.7764 227.337 23.8079 224.313 19.9905 220.496C16.3244 216.679 12.9984 212.294 10.1638 207.116C7.32911 201.75 5.09919 195.778 3.3984 189.05C1.65982 182.096 0.903914 174.386 0.979505 165.882C1.0173 157.378 1.8488 149.705 3.66297 142.978C5.43935 136.099 7.70706 130.203 10.6173 125.101C13.5275 119.809 16.8913 115.501 20.5953 111.797C24.4504 108.093 28.4567 105.183 32.463 103.066C36.6204 100.761 40.7779 99.022 44.9354 98.1149C49.0929 97.17 53.0992 96.6409 56.7653 96.6787L100.192 97.2834L99.474 237.201H99.3984ZM86.6236 112.515L61.074 112.175C54.5354 112.099 48.6016 113.006 43.0079 115.085C37.4142 117.164 32.6142 120.263 28.6079 124.761C24.6016 129.069 21.389 134.55 18.9323 141.428C16.5134 148.307 15.3417 156.395 15.3039 166.071C15.2661 175.746 16.3244 183.872 18.7055 190.827C21.0488 197.781 24.2236 203.337 28.1921 207.948C32.1606 212.332 36.9228 215.583 42.5165 217.813C48.1102 220.08 54.0063 221.138 60.5449 221.214L86.0945 221.554L86.6614 112.477L86.6236 112.515Z" fill="#46AD7B"/>
<path d="M99.3984 237.201L55.9716 236.597C52.3055 236.559 48.2992 235.916 44.1795 234.858C40.022 233.8 35.9023 231.986 31.7449 229.756C27.7764 227.337 23.8079 224.313 19.9905 220.496C16.3244 216.679 12.9984 212.294 10.1638 207.116C7.32911 201.75 5.09919 195.778 3.3984 189.05C1.65982 182.096 0.903914 174.386 0.979505 165.882C1.0173 157.378 1.8488 149.705 3.66297 142.978C5.43935 136.099 7.70706 130.203 10.6173 125.101C13.5275 119.809 16.8913 115.501 20.5953 111.797C24.4504 108.093 28.4567 105.183 32.463 103.066C36.6204 100.761 40.7779 99.022 44.9354 98.1149C49.0929 97.17 53.0992 96.6409 56.7653 96.6787L100.192 97.2834L99.474 237.201H99.3984ZM86.6236 112.515L61.074 112.175C54.5354 112.099 48.6016 113.006 43.0079 115.085C37.4142 117.164 32.6142 120.263 28.6079 124.761C24.6016 129.069 21.389 134.55 18.9323 141.428C16.5134 148.307 15.3417 156.395 15.3039 166.071C15.2661 175.746 16.3244 183.872 18.7055 190.827C21.0488 197.781 24.2236 203.337 28.1921 207.948C32.1606 212.332 36.9228 215.583 42.5165 217.813C48.1102 220.08 54.0063 221.138 60.5449 221.214L86.0945 221.554L86.6614 112.477L86.6236 112.515Z" stroke="#46AD7B" stroke-width="0.566929" stroke-miterlimit="22.9256"/>
<path fill-rule="evenodd" clip-rule="evenodd" d="M470.926 241.699C483.965 241.435 494.17 239.923 505.509 234.405C524.028 225.485 535.14 215.016 544.589 197.252C549.805 187.425 552.375 176.842 552.375 163.803C561.824 163.803 568.702 162.518 568.702 174.537C568.702 178.128 568.173 181.038 569.723 183.343C574.712 190.865 585.03 186.291 585.03 180.395V169.661C585.03 159.192 573.54 148.231 562.58 148.231H552.375V132.66H577.773C581.477 132.66 584.917 129.334 584.917 123.854C584.917 120.792 580.948 117.088 577.773 117.088H552.375V101.517H562.58C573.427 101.517 585.03 90.5559 585.03 80.0866V69.3527C585.03 63.6078 575.203 58.9968 569.95 66.1779C568.173 68.5968 568.665 71.0157 568.816 74.7196C568.929 86.9653 562.806 85.9448 552.488 85.9448C552.488 76.874 551.203 67.6897 547.877 59.6393C543.153 48.263 540.356 43.4252 531.928 33.9763C528.224 29.7811 528.866 33.4472 532.835 20.0677C534.12 15.8724 536.161 11.7527 536.161 7.67083C536.161 0.14957 522.894 -4.46145 519.304 8.19996C518.397 11.2614 515.865 17.9133 515.713 20.3322C512.652 19.6897 495.909 8.19996 474.479 8.19996C473.194 8.19996 472.06 8.19996 470.888 8.19996V241.699H470.926Z" fill="#45AC7C"/>
<path d="M500.935 81.4851C508.972 81.4851 515.487 74.9703 515.487 66.9339C515.487 58.8975 508.972 52.3827 500.935 52.3827C492.899 52.3827 486.384 58.8975 486.384 66.9339C486.384 74.9703 492.899 81.4851 500.935 81.4851Z" fill="white"/>
<path fill-rule="evenodd" clip-rule="evenodd" d="M369.332 173.516V106.505C369.71 96.4141 371.109 86.2094 374.321 77.4031C379.537 62.4739 381.351 54.6881 391.934 43.5763L406.372 28.3826C409.811 27.4755 431.657 9.37158 455.392 9.37158C456.791 9.37158 458.076 9.37158 459.361 9.37158V173.554H369.483H369.37L369.332 173.516Z" fill="#4E4E4D"/>
<path fill-rule="evenodd" clip-rule="evenodd" d="M395.751 44.5968C388.079 36.5464 383.619 29.6677 373.036 39.759C369.861 42.8205 367.556 45.7685 364.343 46.411C353.609 48.5653 349.263 35.9417 354.63 30.9527L364.192 21.8819C373.528 13.0756 392.539 13.5669 401.345 22.9023L409.66 31.5953L395.751 44.748V44.6346V44.5968Z" fill="#4E4E4D"/>
<path d="M427.65 83.3748C436.104 83.3748 442.957 76.5216 442.957 68.0677C442.957 59.6138 436.104 52.7606 427.65 52.7606C419.196 52.7606 412.343 59.6138 412.343 68.0677C412.343 76.5216 419.196 83.3748 427.65 83.3748Z" fill="white"/>
</svg>
